nColumns=19
nRows=80
DataType=double
version=3
OpenSimVersion=4.1
endheader
time	ground_force_calcn_l_vx	ground_force_calcn_l_vy	ground_force_calcn_l_vz	ground_force_calcn_l_px	ground_force_calcn_l_py	ground_force_calcn_l_pz	ground_force_calcn_l_mx	ground_force_calcn_l_my	ground_force_calcn_l_mz	ground_force_calcn_r_vx	ground_force_calcn_r_vy	ground_force_calcn_r_vz	ground_force_calcn_r_px	ground_force_calcn_r_py	ground_force_calcn_r_pz	ground_force_calcn_r_mx	ground_force_calcn_r_my	ground_force_calcn_r_mz
0.57125	0	0	0	0	0	0	0	0	0	68.0465	1042.91	-64.9196	0.0546557	0	0.0674217	0.157284	2.41061	-0.150056
0.572249	0	0	0	0	0	0	0	0	0	69.7203	1034.34	-64.3247	0.0547558	0	0.067352	0.170316	2.52673	-0.157136
0.573247	0	0	0	0	0	0	0	0	0	71.3561	1025.65	-63.7234	0.0548765	0	0.0672824	0.183739	2.641	-0.164085
0.574246	0	0	0	0	0	0	0	0	0	72.9531	1016.84	-63.116	0.0550182	0	0.0672131	0.197538	2.75335	-0.170902
0.575245	0	0	0	0	0	0	0	0	0	74.5103	1007.93	-62.5026	0.0551813	0	0.0671441	0.211697	2.86371	-0.177581
0.576243	0	0	0	0	0	0	0	0	0	76.0271	998.914	-61.8836	0.0553661	0	0.0670753	0.226199	2.97201	-0.184119
0.577242	0	0	0	0	0	0	0	0	0	77.5027	989.792	-61.2591	0.0555729	0	0.0670068	0.241029	3.0782	-0.190512
0.578241	0	0	0	0	0	0	0	0	0	78.9363	980.568	-60.6294	0.0558019	0	0.0669385	0.256169	3.1822	-0.196759
0.579239	0	0	0	0	0	0	0	0	0	80.3271	971.247	-59.9948	0.0560535	0	0.0668706	0.271602	3.28398	-0.202854
0.580238	0	0	0	0	0	0	0	0	0	81.6746	961.831	-59.3554	0.0563279	0	0.066803	0.287309	3.38347	-0.208796
0.581237	0	0	0	0	0	0	0	0	0	82.9779	952.323	-58.7114	0.0566253	0	0.0667358	0.303274	3.48062	-0.214583
0.582236	0	0	0	0	0	0	0	0	0	84.2366	942.726	-58.0632	0.0569459	0	0.066669	0.319476	3.57539	-0.220211
0.583234	0	0	0	0	0	0	0	0	0	85.45	933.044	-57.4109	0.0572898	0	0.0666026	0.335898	3.66774	-0.225679
0.584233	0	0	0	0	0	0	0	0	0	86.6174	923.279	-56.7548	0.0576573	0	0.0665367	0.352521	3.75762	-0.230984
0.585232	0	0	0	0	0	0	0	0	0	87.7384	913.434	-56.0951	0.0580483	0	0.0664713	0.369324	3.84499	-0.236125
0.58623	0	0	0	0	0	0	0	0	0	88.8125	903.514	-55.432	0.0584631	0	0.0664065	0.38629	3.92983	-0.241101
0.587229	0	0	0	0	0	0	0	0	0	89.8392	893.52	-54.7657	0.0589017	0	0.0663423	0.403397	4.0121	-0.24591
0.588228	0	0	0	0	0	0	0	0	0	90.818	883.456	-54.0965	0.059364	0	0.0662788	0.420627	4.09176	-0.25055
0.589226	0	0	0	0	0	0	0	0	0	91.7486	873.326	-53.4246	0.0598501	0	0.066216	0.437959	4.1688	-0.255021
0.590225	0	0	0	0	0	0	0	0	0	92.6304	863.132	-52.7502	0.06036	0	0.0661541	0.455374	4.24318	-0.259322
0.591224	0	0	0	0	0	0	0	0	0	93.4633	852.878	-52.0735	0.0608935	0	0.066093	0.472851	4.31489	-0.263451
0.592222	0	0	0	0	0	0	0	0	0	94.2469	842.567	-51.3948	0.0614506	0	0.066033	0.490371	4.38391	-0.267409
0.593221	0	0	0	0	0	0	0	0	0	94.981	832.203	-50.7142	0.0620311	0	0.0659739	0.507912	4.45021	-0.271195
0.59422	0	0	0	0	0	0	0	0	0	95.6652	821.788	-50.032	0.0626349	0	0.0659161	0.525455	4.51379	-0.274808
0.595218	0	0	0	0	0	0	0	0	0	96.2995	811.326	-49.3483	0.0632617	0	0.0658595	0.54298	4.57462	-0.278248
0.596217	0	0	0	0	0	0	0	0	0	96.8835	800.821	-48.6635	0.0639114	0	0.0658043	0.560466	4.6327	-0.281515
0.597216	0	0	0	0	0	0	0	0	0	97.4173	790.275	-47.9776	0.0645836	0	0.0657506	0.577893	4.68802	-0.28461
0.598214	0	0	0	0	0	0	0	0	0	97.9007	779.692	-47.2909	0.0652779	0	0.0656985	0.595241	4.74056	-0.287531
0.599213	0	0	0	0	0	0	0	0	0	98.3337	769.075	-46.6036	0.0659942	0	0.0656481	0.61249	4.79033	-0.290279
0.600212	0	0	0	0	0	0	0	0	0	98.7163	758.428	-45.9159	0.0667319	0	0.0655997	0.62962	4.83732	-0.292855
0.601211	0	0	0	0	0	0	0	0	0	99.0484	747.754	-45.228	0.0674908	0	0.0655532	0.646611	4.88152	-0.295259
0.602209	0	0	0	0	0	0	0	0	0	99.3302	737.056	-44.5401	0.0682702	0	0.065509	0.663443	4.92293	-0.297491
0.603208	0	0	0	0	0	0	0	0	0	99.5617	726.338	-43.8524	0.0690697	0	0.0654671	0.680097	4.96155	-0.299552
0.604207	0	0	0	0	0	0	0	0	0	99.743	715.603	-43.1651	0.0698888	0	0.0654277	0.696552	4.99739	-0.301442
0.605205	0	0	0	0	0	0	0	0	0	99.8744	704.854	-42.4784	0.070727	0	0.065391	0.712789	5.03044	-0.303162
0.606204	0	0	0	0	0	0	0	0	0	99.9561	694.095	-41.7924	0.0715836	0	0.0653572	0.728788	5.06071	-0.304712
0.607203	0	0	0	0	0	0	0	0	0	99.9882	683.328	-41.1073	0.072458	0	0.0653265	0.744531	5.0882	-0.306093
0.608201	0	0	0	0	0	0	0	0	0	99.971	672.558	-40.4234	0.0733496	0	0.0652991	0.759998	5.11291	-0.307306
0.6092	0	0	0	0	0	0	0	0	0	99.905	661.788	-39.7408	0.0742576	0	0.0652751	0.775171	5.13487	-0.308352
0.610199	0	0	0	0	0	0	0	0	0	99.7903	651.02	-39.0596	0.0751813	0	0.0652549	0.79003	5.15406	-0.309231
0.611197	0	0	0	0	0	0	0	0	0	99.6275	640.259	-38.3801	0.0761201	0	0.0652385	0.804557	5.1705	-0.309945
0.612196	0	0	0	0	0	0	0	0	0	99.4169	629.506	-37.7025	0.077073	0	0.0652263	0.818733	5.1842	-0.310493
0.613195	0	0	0	0	0	0	0	0	0	99.1589	618.767	-37.0268	0.0780394	0	0.0652185	0.83254	5.19517	-0.310878
0.614193	0	0	0	0	0	0	0	0	0	98.8541	608.043	-36.3534	0.0790183	0	0.0652154	0.84596	5.20343	-0.3111
0.615192	0	0	0	0	0	0	0	0	0	98.503	597.338	-35.6822	0.0800089	0	0.065217	0.858976	5.20897	-0.31116
0.616191	0	0	0	0	0	0	0	0	0	98.1061	586.655	-35.0135	0.0810104	0	0.0652239	0.871569	5.21181	-0.311058
0.617189	0	0	0	0	0	0	0	0	0	97.664	575.998	-34.3475	0.0820218	0	0.065236	0.883723	5.21198	-0.310797
0.618188	0	0	0	0	0	0	0	0	0	97.1774	565.369	-33.6844	0.0830422	0	0.0652539	0.89542	5.20947	-0.310377
0.619187	0	0	0	0	0	0	0	0	0	96.6468	554.772	-33.0241	0.0840707	0	0.0652776	0.906644	5.20431	-0.309799
0.620186	0	0	0	0	0	0	0	0	0	96.073	544.209	-32.367	0.0851063	0	0.0653075	0.917377	5.19651	-0.309065
0.621184	0	0	0	0	0	0	0	0	0	95.4566	533.683	-31.7132	0.0861481	0	0.0653438	0.927604	5.1861	-0.308175
0.622183	0	0	0	0	0	0	0	0	0	94.7984	523.199	-31.0628	0.0871951	0	0.0653868	0.93731	5.17308	-0.30713
0.623182	0	0	0	0	0	0	0	0	0	94.0992	512.758	-30.416	0.0882463	0	0.0654368	0.946477	5.15747	-0.305933
0.62418	0	0	0	0	0	0	0	0	0	93.3596	502.363	-29.7729	0.0893008	0	0.0654941	0.955092	5.1393	-0.304584
0.625179	0	0	0	0	0	0	0	0	0	92.5807	492.018	-29.1336	0.0903575	0	0.0655589	0.963139	5.11858	-0.303084
0.626178	0	0	0	0	0	0	0	0	0	91.7631	481.725	-28.4984	0.0914155	0	0.0656314	0.970604	5.09534	-0.301435
0.627176	0	0	0	0	0	0	0	0	0	90.9078	471.487	-27.8672	0.0924738	0	0.065712	0.977473	5.06959	-0.299638
0.628175	0	0	0	0	0	0	0	0	0	90.0157	461.307	-27.2404	0.0935313	0	0.0658009	0.983733	5.04137	-0.297696
0.629174	0	0	0	0	0	0	0	0	0	89.0876	451.187	-26.618	0.0945872	0	0.0658984	0.98937	5.01069	-0.295608
0.630172	0	0	0	0	0	0	0	0	0	88.1245	441.13	-26.0001	0.0956404	0	0.0660046	0.994372	4.97759	-0.293378
0.631171	0	0	0	0	0	0	0	0	0	87.1274	431.14	-25.3869	0.09669	0	0.06612	0.998726	4.94208	-0.291006
0.63217	0	0	0	0	0	0	0	0	0	86.0972	421.217	-24.7786	0.097735	0	0.0662446	1.00242	4.9042	-0.288495
0.633168	0	0	0	0	0	0	0	0	0	85.035	411.366	-24.1751	0.0987746	0	0.0663788	1.00545	4.86397	-0.285846
0.634167	0	0	0	0	0	0	0	0	0	83.9416	401.588	-23.5768	0.0998079	0	0.0665227	1.0078	4.82143	-0.283061
0.635166	0	0	0	0	0	0	0	0	0	82.8183	391.886	-22.9836	0.100834	0	0.0666766	1.00945	4.77661	-0.280142
0.636164	0	0	0	0	0	0	0	0	0	81.666	382.262	-22.3958	0.101852	0	0.0668406	1.01041	4.72954	-0.277092
0.637163	0	0	0	0	0	0	0	0	0	80.4857	372.719	-21.8135	0.102861	0	0.0670149	1.01066	4.68025	-0.273913
0.638162	0	0	0	0	0	0	0	0	0	79.2787	363.259	-21.2367	0.10386	0	0.0671997	1.0102	4.62879	-0.270606
0.639161	0	0	0	0	0	0	0	0	0	78.0459	353.884	-20.6656	0.104849	0	0.0673952	1.00902	4.57519	-0.267175
0.640159	0	0	0	0	0	0	0	0	0	76.7885	344.596	-20.1003	0.105827	0	0.0676015	1.00711	4.5195	-0.263622
0.641158	0	0	0	0	0	0	0	0	0	75.5076	335.398	-19.541	0.106793	0	0.0678187	1.00446	4.46175	-0.25995
0.642157	0	0	0	0	0	0	0	0	0	74.2043	326.292	-18.9877	0.107746	0	0.0680468	1.00108	4.40199	-0.256161
0.643155	0	0	0	0	0	0	0	0	0	72.8798	317.28	-18.4406	0.108686	0	0.0682861	0.996966	4.34026	-0.252259
0.644154	0	0	0	0	0	0	0	0	0	71.5352	308.363	-17.8997	0.109613	0	0.0685365	0.992106	4.27662	-0.248247
0.645153	0	0	0	0	0	0	0	0	0	70.1718	299.544	-17.3653	0.110525	0	0.0687982	0.986502	4.21111	-0.244128
0.646151	0	0	0	0	0	0	0	0	0	68.7906	290.825	-16.8374	0.111423	0	0.069071	0.980156	4.14379	-0.239905
0.64715	0	0	0	0	0	0	0	0	0	67.3929	282.207	-16.316	0.112305	0	0.069355	0.973067	4.07471	-0.235583
0.648149	0	0	0	0	0	0	0	0	0	65.9799	273.693	-15.8014	0.113172	0	0.0696503	0.965239	4.00393	-0.231164
0.649147	0	0	0	0	0	0	0	0	0	64.5528	265.284	-15.2937	0.114024	0	0.0699567	0.956674	3.93151	-0.226653
0.650146	0	0	0	0	0	0	0	0	0	63.1127	256.982	-14.7928	0.114859	0	0.0702742	0.947377	3.85752	-0.222054
